<svg width="220" height="220" viewBox="0 0 220 220" fill="none" xmlns="http://www.w3.org/2000/svg">
    <path
        d="M20 50C20 33.4315 33.4315 20 50 20H190C206.569 20 220 33.4315 220 50V190C220 206.569 206.569 220 190 220H50C33.4315 220 20 206.569 20 190V50Z"
        fill="url(#paint0_linear_4585_7821)" />
    <path fill-rule="evenodd" clip-rule="evenodd"
        d="M50 0C22.3858 0 0 22.3858 0 50V170C0 197.614 22.3858 220 50 220C33.4315 220 20 206.569 20 190V50C20 33.4315 33.4315 20 50 20H190C206.569 20 220 33.4315 220 50C220 22.3858 197.614 0 170 0H50Z"
        fill="url(#paint0_linear_4585_7821)" />
    <path d="M120 163H188V183H120V163Z" fill="url(#paint1_linear_4585_7821)" />
    <path d="M52 57L120 86.25V105.75L52 135V111.9L94.3111 96L52 80.1V57Z"
        fill="light-dark(#181D14, #DFE4D5)" />
    <defs>
        <linearGradient id="paint0_linear_4585_7821" x1="110" y1="0" x2="110" y2="220"
            gradientUnits="userSpaceOnUse">
            <stop offset="0%" stop-color="light-dark(#DCE6CF, #404A39)" />
            <stop offset="100%" stop-color="light-dark(#F6FBEC, #10150C)" />
        </linearGradient>
    </defs>
    <defs>
        <linearGradient id="paint1_linear_4585_7821" x1="120" y1="163" x2="188" y2="183"
            gradientUnits="userSpaceOnUse">
            <stop offset="0%" stop-color="light-dark(#2E6C00, #87DB54)" />
            <stop offset="25%" stop-color="light-dark(#45672F, #AAD28E)" />
            <stop offset="50%" stop-color="light-dark(#006A67, #50DAD5)" />
            <stop offset="75%" stop-color="light-dark(#45672F, #AAD28E)" />
            <stop offset="100%" stop-color="light-dark(#2E6C00, #87DB54)" />
        </linearGradient>
    </defs>
</svg>
